<svg xmlns="http://www.w3.org/2000/svg" xmlns:xlink="http://www.w3.org/1999/xlink" contentStyleType="text/css" data-diagram-type="SEQUENCE" height="603px" preserveAspectRatio="none" style="width:791px;height:603px;background:#FFFFFF;" version="1.1" viewBox="0 0 791 603" width="791px" zoomAndPan="magnify"><defs/><g><g><title>Game Server</title><rect fill="#000000" fill-opacity="0.00000" height="531.8594" width="8" x="54.0195" y="36.2969"/><line style="stroke:#181818;stroke-width:0.5;stroke-dasharray:5,5;" x1="58" x2="58" y1="36.2969" y2="568.1563"/></g><g><title>Event Listener</title><rect fill="#000000" fill-opacity="0.00000" height="531.8594" width="8" x="174.4814" y="36.2969"/><line style="stroke:#181818;stroke-width:0.5;stroke-dasharray:5,5;" x1="178.0391" x2="178.0391" y1="36.2969" y2="568.1563"/></g><g><title>Switchboard Oracle</title><rect fill="#000000" fill-opacity="0.00000" height="531.8594" width="8" x="365.4756" y="36.2969"/><line style="stroke:#181818;stroke-width:0.5;stroke-dasharray:5,5;" x1="368.9932" x2="368.9932" y1="36.2969" y2="568.1563"/></g><g><title>Smart Contract</title><rect fill="#000000" fill-opacity="0.00000" height="531.8594" width="8" x="575.7031" y="36.2969"/><line style="stroke:#181818;stroke-width:0.5;stroke-dasharray:5,5;" x1="579.1914" x2="579.1914" y1="36.2969" y2="568.1563"/></g><g><title>Winners</title><rect fill="#000000" fill-opacity="0.00000" height="531.8594" width="8" x="746.3252" y="36.2969"/><line style="stroke:#181818;stroke-width:0.5;stroke-dasharray:5,5;" x1="749.7544" x2="749.7544" y1="36.2969" y2="568.1563"/></g><g class="participant participant-head" data-participant="GS"><rect fill="#E2E2F0" height="30.2969" rx="2.5" ry="2.5" style="stroke:#181818;stroke-width:0.5;" width="106.0391" x="5" y="5"/><text fill="#000000" font-family="sans-serif" font-size="14" lengthAdjust="spacing" textLength="92.0391" x="12" y="24.9951">Game Server</text></g><g class="participant participant-tail" data-participant="GS"><rect fill="#E2E2F0" height="30.2969" rx="2.5" ry="2.5" style="stroke:#181818;stroke-width:0.5;" width="106.0391" x="5" y="567.1563"/><text fill="#000000" font-family="sans-serif" font-size="14" lengthAdjust="spacing" textLength="92.0391" x="12" y="587.1514">Game Server</text></g><g class="participant participant-head" data-participant="EL"><rect fill="#E2E2F0" height="30.2969" rx="2.5" ry="2.5" style="stroke:#181818;stroke-width:0.5;" width="114.8848" x="121.0391" y="5"/><text fill="#000000" font-family="sans-serif" font-size="14" lengthAdjust="spacing" textLength="100.8848" x="128.0391" y="24.9951">Event Listener</text></g><g class="participant participant-tail" data-participant="EL"><rect fill="#E2E2F0" height="30.2969" rx="2.5" ry="2.5" style="stroke:#181818;stroke-width:0.5;" width="114.8848" x="121.0391" y="567.1563"/><text fill="#000000" font-family="sans-serif" font-size="14" lengthAdjust="spacing" textLength="100.8848" x="128.0391" y="587.1514">Event Listener</text></g><g class="participant participant-head" data-participant="SB"><rect fill="#E2E2F0" height="30.2969" rx="2.5" ry="2.5" style="stroke:#181818;stroke-width:0.5;" width="150.9648" x="293.9932" y="5"/><text fill="#000000" font-family="sans-serif" font-size="14" lengthAdjust="spacing" textLength="136.9648" x="300.9932" y="24.9951">Switchboard Oracle</text></g><g class="participant participant-tail" data-participant="SB"><rect fill="#E2E2F0" height="30.2969" rx="2.5" ry="2.5" style="stroke:#181818;stroke-width:0.5;" width="150.9648" x="293.9932" y="567.1563"/><text fill="#000000" font-family="sans-serif" font-size="14" lengthAdjust="spacing" textLength="136.9648" x="300.9932" y="587.1514">Switchboard Oracle</text></g><g class="participant participant-head" data-participant="SC"><rect fill="#E2E2F0" height="30.2969" rx="2.5" ry="2.5" style="stroke:#181818;stroke-width:0.5;" width="121.0234" x="519.1914" y="5"/><text fill="#000000" font-family="sans-serif" font-size="14" lengthAdjust="spacing" textLength="107.0234" x="526.1914" y="24.9951">Smart Contract</text></g><g class="participant participant-tail" data-participant="SC"><rect fill="#E2E2F0" height="30.2969" rx="2.5" ry="2.5" style="stroke:#181818;stroke-width:0.5;" width="121.0234" x="519.1914" y="567.1563"/><text fill="#000000" font-family="sans-serif" font-size="14" lengthAdjust="spacing" textLength="107.0234" x="526.1914" y="587.1514">Smart Contract</text></g><g class="participant participant-head" data-participant="W"><rect fill="#E2E2F0" height="30.2969" rx="2.5" ry="2.5" style="stroke:#181818;stroke-width:0.5;" width="71.1416" x="714.7544" y="5"/><text fill="#000000" font-family="sans-serif" font-size="14" lengthAdjust="spacing" textLength="57.1416" x="721.7544" y="24.9951">Winners</text></g><g class="participant participant-tail" data-participant="W"><rect fill="#E2E2F0" height="30.2969" rx="2.5" ry="2.5" style="stroke:#181818;stroke-width:0.5;" width="71.1416" x="714.7544" y="567.1563"/><text fill="#000000" font-family="sans-serif" font-size="14" lengthAdjust="spacing" textLength="57.1416" x="721.7544" y="587.1514">Winners</text></g><g class="message" data-participant-1="GS" data-participant-2="EL"><polygon fill="#181818" points="166.4814,63.4297,176.4814,67.4297,166.4814,71.4297,170.4814,67.4297" style="stroke:#181818;stroke-width:1;"/><line style="stroke:#181818;stroke-width:1;" x1="58.0195" x2="172.4814" y1="67.4297" y2="67.4297"/><text fill="#000000" font-family="sans-serif" font-size="13" lengthAdjust="spacing" textLength="91.9585" x="65.0195" y="62.3638">First kill event</text></g><g class="message" data-participant-1="EL" data-participant-2="EL"><line style="stroke:#181818;stroke-width:1;" x1="178.4814" x2="220.4814" y1="96.5625" y2="96.5625"/><line style="stroke:#181818;stroke-width:1;" x1="220.4814" x2="220.4814" y1="96.5625" y2="109.5625"/><line style="stroke:#181818;stroke-width:1;" x1="179.4814" x2="220.4814" y1="109.5625" y2="109.5625"/><polygon fill="#181818" points="189.4814,105.5625,179.4814,109.5625,189.4814,113.5625,185.4814,109.5625" style="stroke:#181818;stroke-width:1;"/><text fill="#000000" font-family="sans-serif" font-size="13" lengthAdjust="spacing" textLength="127.9688" x="185.4814" y="91.4966">Validate event data</text></g><g class="message" data-participant-1="EL" data-participant-2="SB"><polygon fill="#181818" points="357.4756,134.6953,367.4756,138.6953,357.4756,142.6953,361.4756,138.6953" style="stroke:#181818;stroke-width:1;"/><line style="stroke:#181818;stroke-width:1;" x1="178.4814" x2="363.4756" y1="138.6953" y2="138.6953"/><text fill="#000000" font-family="sans-serif" font-size="13" lengthAdjust="spacing" textLength="166.9941" x="185.4814" y="133.6294">Publish event (HTTP task)</text></g><g class="message" data-participant-1="SB" data-participant-2="SB"><line style="stroke:#181818;stroke-width:1;" x1="369.4756" x2="411.4756" y1="167.8281" y2="167.8281"/><line style="stroke:#181818;stroke-width:1;" x1="411.4756" x2="411.4756" y1="167.8281" y2="180.8281"/><line style="stroke:#181818;stroke-width:1;" x1="370.4756" x2="411.4756" y1="180.8281" y2="180.8281"/><polygon fill="#181818" points="380.4756,176.8281,370.4756,180.8281,380.4756,184.8281,376.4756,180.8281" style="stroke:#181818;stroke-width:1;"/><text fill="#000000" font-family="sans-serif" font-size="13" lengthAdjust="spacing" textLength="152.5596" x="376.4756" y="162.7622">3+ oracles fetch &amp; sign</text></g><g class="message" data-participant-1="SB" data-participant-2="SC"><polygon fill="#181818" points="567.7031,205.9609,577.7031,209.9609,567.7031,213.9609,571.7031,209.9609" style="stroke:#181818;stroke-width:1;"/><line style="stroke:#181818;stroke-width:1;" x1="369.4756" x2="573.7031" y1="209.9609" y2="209.9609"/><text fill="#000000" font-family="sans-serif" font-size="13" lengthAdjust="spacing" textLength="186.2275" x="376.4756" y="204.895">settle_market(winner, proof)</text></g><g class="message" data-participant-1="SC" data-participant-2="SC"><line style="stroke:#181818;stroke-width:1;" x1="579.7031" x2="621.7031" y1="239.0938" y2="239.0938"/><line style="stroke:#181818;stroke-width:1;" x1="621.7031" x2="621.7031" y1="239.0938" y2="252.0938"/><line style="stroke:#181818;stroke-width:1;" x1="580.7031" x2="621.7031" y1="252.0938" y2="252.0938"/><polygon fill="#181818" points="590.7031,248.0938,580.7031,252.0938,590.7031,256.0938,586.7031,252.0938" style="stroke:#181818;stroke-width:1;"/><text fill="#000000" font-family="sans-serif" font-size="13" lengthAdjust="spacing" textLength="154.6987" x="586.7031" y="234.0278">Verify oracle signatures</text></g><g class="message" data-participant-1="SC" data-participant-2="SC"><line style="stroke:#181818;stroke-width:1;" x1="579.7031" x2="621.7031" y1="281.2266" y2="281.2266"/><line style="stroke:#181818;stroke-width:1;" x1="621.7031" x2="621.7031" y1="281.2266" y2="294.2266"/><line style="stroke:#181818;stroke-width:1;" x1="580.7031" x2="621.7031" y1="294.2266" y2="294.2266"/><polygon fill="#181818" points="590.7031,290.2266,580.7031,294.2266,590.7031,298.2266,586.7031,294.2266" style="stroke:#181818;stroke-width:1;"/><text fill="#000000" font-family="sans-serif" font-size="13" lengthAdjust="spacing" textLength="140.2515" x="586.7031" y="276.1606">Check data freshness</text></g><g class="message" data-participant-1="SC" data-participant-2="SC"><line style="stroke:#181818;stroke-width:1;" x1="579.7031" x2="621.7031" y1="323.3594" y2="323.3594"/><line style="stroke:#181818;stroke-width:1;" x1="621.7031" x2="621.7031" y1="323.3594" y2="336.3594"/><line style="stroke:#181818;stroke-width:1;" x1="580.7031" x2="621.7031" y1="336.3594" y2="336.3594"/><polygon fill="#181818" points="590.7031,332.3594,580.7031,336.3594,590.7031,340.3594,586.7031,336.3594" style="stroke:#181818;stroke-width:1;"/><text fill="#000000" font-family="sans-serif" font-size="13" lengthAdjust="spacing" textLength="139.8579" x="586.7031" y="318.2935">Set winning_outcome</text></g><g class="message" data-participant-1="SC" data-participant-2="SC"><line style="stroke:#181818;stroke-width:1;" x1="579.7031" x2="621.7031" y1="365.4922" y2="365.4922"/><line style="stroke:#181818;stroke-width:1;" x1="621.7031" x2="621.7031" y1="365.4922" y2="378.4922"/><line style="stroke:#181818;stroke-width:1;" x1="580.7031" x2="621.7031" y1="378.4922" y2="378.4922"/><polygon fill="#181818" points="590.7031,374.4922,580.7031,378.4922,590.7031,382.4922,586.7031,378.4922" style="stroke:#181818;stroke-width:1;"/><text fill="#000000" font-family="sans-serif" font-size="13" lengthAdjust="spacing" textLength="156.6221" x="586.7031" y="360.4263">Update status = Settled</text></g><g class="message" data-participant-1="SC" data-participant-2="SB"><polygon fill="#181818" points="380.4756,403.625,370.4756,407.625,380.4756,411.625,376.4756,407.625" style="stroke:#181818;stroke-width:1;"/><line style="stroke:#181818;stroke-width:1;stroke-dasharray:2,2;" x1="374.4756" x2="578.7031" y1="407.625" y2="407.625"/><text fill="#000000" font-family="sans-serif" font-size="13" lengthAdjust="spacing" textLength="141.9717" x="386.4756" y="402.5591">Settlement confirmed</text></g><g class="message" data-participant-1="W" data-participant-2="SC"><polygon fill="#181818" points="590.7031,432.7578,580.7031,436.7578,590.7031,440.7578,586.7031,436.7578" style="stroke:#181818;stroke-width:1;"/><line style="stroke:#181818;stroke-width:1;" x1="584.7031" x2="749.3252" y1="436.7578" y2="436.7578"/><text fill="#000000" font-family="sans-serif" font-size="13" lengthAdjust="spacing" textLength="109.2432" x="596.7031" y="431.6919">claim_winnings()</text></g><g class="message" data-participant-1="SC" data-participant-2="SC"><line style="stroke:#181818;stroke-width:1;" x1="579.7031" x2="621.7031" y1="465.8906" y2="465.8906"/><line style="stroke:#181818;stroke-width:1;" x1="621.7031" x2="621.7031" y1="465.8906" y2="478.8906"/><line style="stroke:#181818;stroke-width:1;" x1="580.7031" x2="621.7031" y1="478.8906" y2="478.8906"/><polygon fill="#181818" points="590.7031,474.8906,580.7031,478.8906,590.7031,482.8906,586.7031,478.8906" style="stroke:#181818;stroke-width:1;"/><text fill="#000000" font-family="sans-serif" font-size="13" lengthAdjust="spacing" textLength="110.0493" x="586.7031" y="460.8247">Calculate payout</text></g><g class="message" data-participant-1="SC" data-participant-2="SC"><line style="stroke:#181818;stroke-width:1;" x1="579.7031" x2="621.7031" y1="508.0234" y2="508.0234"/><line style="stroke:#181818;stroke-width:1;" x1="621.7031" x2="621.7031" y1="508.0234" y2="521.0234"/><line style="stroke:#181818;stroke-width:1;" x1="580.7031" x2="621.7031" y1="521.0234" y2="521.0234"/><polygon fill="#181818" points="590.7031,517.0234,580.7031,521.0234,590.7031,525.0234,586.7031,521.0234" style="stroke:#181818;stroke-width:1;"/><text fill="#000000" font-family="sans-serif" font-size="13" lengthAdjust="spacing" textLength="155.4541" x="586.7031" y="502.9575">Transfer SOL from vault</text></g><g class="message" data-participant-1="SC" data-participant-2="W"><polygon fill="#181818" points="738.3252,546.1563,748.3252,550.1563,738.3252,554.1563,742.3252,550.1563" style="stroke:#181818;stroke-width:1;"/><line style="stroke:#181818;stroke-width:1;stroke-dasharray:2,2;" x1="579.7031" x2="744.3252" y1="550.1563" y2="550.1563"/><text fill="#000000" font-family="sans-serif" font-size="13" lengthAdjust="spacing" textLength="109.6431" x="586.7031" y="545.0903">Payout complete</text></g><!--SRC=[NP2xRi9044LxVyKeHKIKf4g7b1HOX1IMG5e29HhC6A-y3sjt3EBlCrvioQJouvwzZsqni2vrYuxXQOMMG56uK7W2ZB1IMJlLbnUIHw4ZankGPV68gAlciZvw32TO1omD9Kmj_c5MlY3tZeNXEv8_8dlj92GcRPzbAmNlNn8tXsyT8aEZZG7g2sNBOfHsQFG9cUu2o2iEgbhCOTCTZOxr8Cv-jjiDCCRc9LEBaVbu1PzgHwX8bi0pH7rs8v7F8HApeOCCQ8XdrzJo3ThWVIL6-OZjAEZgDfWb3-GkK9mWUKrbaqf29KhjA4vbHGozlNRdW- -uz9Ocwc-RXaOMsmYVFIsrJeaOjjn_sNviwLsbWnKzsuyEfK5j3qD2d4tBvsZAplJ-BTuaUo9j0xfOKG2rBgIsjt31pl2OkvThJaSaqhQ6cFu0]--></g></svg>