<svg xmlns="http://www.w3.org/2000/svg" xmlns:xlink="http://www.w3.org/1999/xlink" contentStyleType="text/css" data-diagram-type="SEQUENCE" height="612px" preserveAspectRatio="none" style="width:711px;height:612px;background:#FFFFFF;" version="1.1" viewBox="0 0 711 612" width="711px" zoomAndPan="magnify"><defs/><g><g><title>User</title><rect fill="#000000" fill-opacity="0.00000" height="450.7266" width="8" x="19.9551" y="81.2969"/><line style="stroke:#181818;stroke-width:0.5;stroke-dasharray:5,5;" x1="23" x2="23" y1="81.2969" y2="532.0234"/></g><g><title>Frontend</title><rect fill="#000000" fill-opacity="0.00000" height="450.7266" width="8" x="242.478" y="81.2969"/><line style="stroke:#181818;stroke-width:0.5;stroke-dasharray:5,5;" x1="245.9233" x2="245.9233" y1="81.2969" y2="532.0234"/></g><g><title>Smart Contract</title><rect fill="#000000" fill-opacity="0.00000" height="450.7266" width="8" x="366.6797" y="81.2969"/><line style="stroke:#181818;stroke-width:0.5;stroke-dasharray:5,5;" x1="370.168" x2="370.168" y1="81.2969" y2="532.0234"/></g><g><title>Solana</title><rect fill="#000000" fill-opacity="0.00000" height="450.7266" width="8" x="579.1226" y="81.2969"/><line style="stroke:#181818;stroke-width:0.5;stroke-dasharray:5,5;" x1="582.436" x2="582.436" y1="81.2969" y2="532.0234"/></g><g><title>PostgreSQL</title><rect fill="#000000" fill-opacity="0.00000" height="450.7266" width="8" x="663.1855" y="81.2969"/><line style="stroke:#181818;stroke-width:0.5;stroke-dasharray:5,5;" x1="666.8091" x2="666.8091" y1="81.2969" y2="532.0234"/></g><g class="participant participant-head" data-participant="User"><text fill="#000000" font-family="sans-serif" font-size="14" lengthAdjust="spacing" textLength="31.9102" x="5" y="77.9951">User</text><ellipse cx="23.9551" cy="13.5" fill="#E2E2F0" rx="8" ry="8" style="stroke:#181818;stroke-width:0.5;"/><path d="M23.9551,21.5 L23.9551,48.5 M10.9551,29.5 L36.9551,29.5 M23.9551,48.5 L10.9551,63.5 M23.9551,48.5 L36.9551,63.5" fill="none" style="stroke:#181818;stroke-width:0.5;"/></g><g class="participant participant-tail" data-participant="User"><text fill="#000000" font-family="sans-serif" font-size="14" lengthAdjust="spacing" textLength="31.9102" x="5" y="544.0186">User</text><ellipse cx="23.9551" cy="555.8203" fill="#E2E2F0" rx="8" ry="8" style="stroke:#181818;stroke-width:0.5;"/><path d="M23.9551,563.8203 L23.9551,590.8203 M10.9551,571.8203 L36.9551,571.8203 M23.9551,590.8203 L10.9551,605.8203 M23.9551,590.8203 L36.9551,605.8203" fill="none" style="stroke:#181818;stroke-width:0.5;"/></g><g class="participant participant-head" data-participant="FE"><rect fill="#E2E2F0" height="30.2969" rx="2.5" ry="2.5" style="stroke:#181818;stroke-width:0.5;" width="77.1094" x="207.9233" y="50"/><text fill="#000000" font-family="sans-serif" font-size="14" lengthAdjust="spacing" textLength="63.1094" x="214.9233" y="69.9951">Frontend</text></g><g class="participant participant-tail" data-participant="FE"><rect fill="#E2E2F0" height="30.2969" rx="2.5" ry="2.5" style="stroke:#181818;stroke-width:0.5;" width="77.1094" x="207.9233" y="531.0234"/><text fill="#000000" font-family="sans-serif" font-size="14" lengthAdjust="spacing" textLength="63.1094" x="214.9233" y="551.0186">Frontend</text></g><g class="participant participant-head" data-participant="SC"><rect fill="#E2E2F0" height="30.2969" rx="2.5" ry="2.5" style="stroke:#181818;stroke-width:0.5;" width="121.0234" x="310.168" y="50"/><text fill="#000000" font-family="sans-serif" font-size="14" lengthAdjust="spacing" textLength="107.0234" x="317.168" y="69.9951">Smart Contract</text></g><g class="participant participant-tail" data-participant="SC"><rect fill="#E2E2F0" height="30.2969" rx="2.5" ry="2.5" style="stroke:#181818;stroke-width:0.5;" width="121.0234" x="310.168" y="531.0234"/><text fill="#000000" font-family="sans-serif" font-size="14" lengthAdjust="spacing" textLength="107.0234" x="317.168" y="551.0186">Smart Contract</text></g><g class="participant participant-head" data-participant="SOL"><rect fill="#E2E2F0" height="30.2969" rx="2.5" ry="2.5" style="stroke:#181818;stroke-width:0.5;" width="61.373" x="552.436" y="50"/><text fill="#000000" font-family="sans-serif" font-size="14" lengthAdjust="spacing" textLength="47.373" x="559.436" y="69.9951">Solana</text></g><g class="participant participant-tail" data-participant="SOL"><rect fill="#E2E2F0" height="30.2969" rx="2.5" ry="2.5" style="stroke:#181818;stroke-width:0.5;" width="61.373" x="552.436" y="531.0234"/><text fill="#000000" font-family="sans-serif" font-size="14" lengthAdjust="spacing" textLength="47.373" x="559.436" y="551.0186">Solana</text></g><g class="participant participant-head" data-participant="DB"><text fill="#000000" font-family="sans-serif" font-size="14" lengthAdjust="spacing" textLength="80.7529" x="623.8091" y="77.9951">PostgreSQL</text><path d="M649.1855,29 C649.1855,19 667.1855,19 667.1855,19 C667.1855,19 685.1855,19 685.1855,29 L685.1855,55 C685.1855,65 667.1855,65 667.1855,65 C667.1855,65 649.1855,65 649.1855,55 L649.1855,29" fill="#E2E2F0" style="stroke:#181818;stroke-width:0.5;"/><path d="M649.1855,29 C649.1855,39 667.1855,39 667.1855,39 C667.1855,39 685.1855,39 685.1855,29" fill="none" style="stroke:#181818;stroke-width:0.5;"/></g><g class="participant participant-tail" data-participant="DB"><text fill="#000000" font-family="sans-serif" font-size="14" lengthAdjust="spacing" textLength="80.7529" x="623.8091" y="544.0186">PostgreSQL</text><path d="M649.1855,557.3203 C649.1855,547.3203 667.1855,547.3203 667.1855,547.3203 C667.1855,547.3203 685.1855,547.3203 685.1855,557.3203 L685.1855,583.3203 C685.1855,593.3203 667.1855,593.3203 667.1855,593.3203 C667.1855,593.3203 649.1855,593.3203 649.1855,583.3203 L649.1855,557.3203" fill="#E2E2F0" style="stroke:#181818;stroke-width:0.5;"/><path d="M649.1855,557.3203 C649.1855,567.3203 667.1855,567.3203 667.1855,567.3203 C667.1855,567.3203 685.1855,567.3203 685.1855,557.3203" fill="none" style="stroke:#181818;stroke-width:0.5;"/></g><g class="message" data-participant-1="User" data-participant-2="FE"><polygon fill="#181818" points="234.478,108.4297,244.478,112.4297,234.478,116.4297,238.478,112.4297" style="stroke:#181818;stroke-width:1;"/><line style="stroke:#181818;stroke-width:1;" x1="23.9551" x2="240.478" y1="112.4297" y2="112.4297"/><text fill="#000000" font-family="sans-serif" font-size="13" lengthAdjust="spacing" textLength="198.5229" x="30.9551" y="107.3638">Select outcome, enter amount</text></g><g class="message" data-participant-1="FE" data-participant-2="FE"><line style="stroke:#181818;stroke-width:1;" x1="246.478" x2="288.478" y1="141.5625" y2="141.5625"/><line style="stroke:#181818;stroke-width:1;" x1="288.478" x2="288.478" y1="141.5625" y2="154.5625"/><line style="stroke:#181818;stroke-width:1;" x1="247.478" x2="288.478" y1="154.5625" y2="154.5625"/><polygon fill="#181818" points="257.478,150.5625,247.478,154.5625,257.478,158.5625,253.478,154.5625" style="stroke:#181818;stroke-width:1;"/><text fill="#000000" font-family="sans-serif" font-size="13" lengthAdjust="spacing" textLength="110.2017" x="253.478" y="136.4966">Build transaction</text></g><g class="message" data-participant-1="FE" data-participant-2="User"><polygon fill="#181818" points="34.9551,179.6953,24.9551,183.6953,34.9551,187.6953,30.9551,183.6953" style="stroke:#181818;stroke-width:1;"/><line style="stroke:#181818;stroke-width:1;" x1="28.9551" x2="245.478" y1="183.6953" y2="183.6953"/><text fill="#000000" font-family="sans-serif" font-size="13" lengthAdjust="spacing" textLength="162.0938" x="40.9551" y="178.6294">Request wallet signature</text></g><g class="message" data-participant-1="User" data-participant-2="FE"><polygon fill="#181818" points="234.478,208.8281,244.478,212.8281,234.478,216.8281,238.478,212.8281" style="stroke:#181818;stroke-width:1;"/><line style="stroke:#181818;stroke-width:1;" x1="23.9551" x2="240.478" y1="212.8281" y2="212.8281"/><text fill="#000000" font-family="sans-serif" font-size="13" lengthAdjust="spacing" textLength="105.9233" x="30.9551" y="207.7622">Sign transaction</text></g><g class="message" data-participant-1="FE" data-participant-2="SOL"><polygon fill="#181818" points="571.1226,237.9609,581.1226,241.9609,571.1226,245.9609,575.1226,241.9609" style="stroke:#181818;stroke-width:1;"/><line style="stroke:#181818;stroke-width:1;" x1="246.478" x2="577.1226" y1="241.9609" y2="241.9609"/><text fill="#000000" font-family="sans-serif" font-size="13" lengthAdjust="spacing" textLength="123.6841" x="253.478" y="236.895">Submit transaction</text></g><g class="message" data-participant-1="SOL" data-participant-2="SC"><polygon fill="#181818" points="381.6797,267.0938,371.6797,271.0938,381.6797,275.0938,377.6797,271.0938" style="stroke:#181818;stroke-width:1;"/><line style="stroke:#181818;stroke-width:1;" x1="375.6797" x2="582.1226" y1="271.0938" y2="271.0938"/><text fill="#000000" font-family="sans-serif" font-size="13" lengthAdjust="spacing" textLength="188.4429" x="387.6797" y="266.0278">place_bet(outcome, amount)</text></g><g class="message" data-participant-1="SC" data-participant-2="SC"><line style="stroke:#181818;stroke-width:1;" x1="370.6797" x2="412.6797" y1="300.2266" y2="300.2266"/><line style="stroke:#181818;stroke-width:1;" x1="412.6797" x2="412.6797" y1="300.2266" y2="313.2266"/><line style="stroke:#181818;stroke-width:1;" x1="371.6797" x2="412.6797" y1="313.2266" y2="313.2266"/><polygon fill="#181818" points="381.6797,309.2266,371.6797,313.2266,381.6797,317.2266,377.6797,313.2266" style="stroke:#181818;stroke-width:1;"/><text fill="#000000" font-family="sans-serif" font-size="13" lengthAdjust="spacing" textLength="107.9419" x="377.6797" y="295.1606">Calculate shares</text></g><g class="message" data-participant-1="SC" data-participant-2="SC"><line style="stroke:#181818;stroke-width:1;" x1="370.6797" x2="412.6797" y1="342.3594" y2="342.3594"/><line style="stroke:#181818;stroke-width:1;" x1="412.6797" x2="412.6797" y1="342.3594" y2="355.3594"/><line style="stroke:#181818;stroke-width:1;" x1="371.6797" x2="412.6797" y1="355.3594" y2="355.3594"/><polygon fill="#181818" points="381.6797,351.3594,371.6797,355.3594,381.6797,359.3594,377.6797,355.3594" style="stroke:#181818;stroke-width:1;"/><text fill="#000000" font-family="sans-serif" font-size="13" lengthAdjust="spacing" textLength="85.7568" x="377.6797" y="337.2935">Update pools</text></g><g class="message" data-participant-1="SC" data-participant-2="SC"><line style="stroke:#181818;stroke-width:1;" x1="370.6797" x2="412.6797" y1="384.4922" y2="384.4922"/><line style="stroke:#181818;stroke-width:1;" x1="412.6797" x2="412.6797" y1="384.4922" y2="397.4922"/><line style="stroke:#181818;stroke-width:1;" x1="371.6797" x2="412.6797" y1="397.4922" y2="397.4922"/><polygon fill="#181818" points="381.6797,393.4922,371.6797,397.4922,381.6797,401.4922,377.6797,397.4922" style="stroke:#181818;stroke-width:1;"/><text fill="#000000" font-family="sans-serif" font-size="13" lengthAdjust="spacing" textLength="154.6162" x="377.6797" y="379.4263">Create Position account</text></g><g class="message" data-participant-1="SC" data-participant-2="SOL"><polygon fill="#181818" points="571.1226,422.625,581.1226,426.625,571.1226,430.625,575.1226,426.625" style="stroke:#181818;stroke-width:1;"/><line style="stroke:#181818;stroke-width:1;stroke-dasharray:2,2;" x1="370.6797" x2="577.1226" y1="426.625" y2="426.625"/><text fill="#000000" font-family="sans-serif" font-size="13" lengthAdjust="spacing" textLength="52.3301" x="377.6797" y="421.5591">Success</text></g><g class="message" data-participant-1="SOL" data-participant-2="FE"><polygon fill="#181818" points="257.478,451.7578,247.478,455.7578,257.478,459.7578,253.478,455.7578" style="stroke:#181818;stroke-width:1;"/><line style="stroke:#181818;stroke-width:1;stroke-dasharray:2,2;" x1="251.478" x2="582.1226" y1="455.7578" y2="455.7578"/><text fill="#000000" font-family="sans-serif" font-size="13" lengthAdjust="spacing" textLength="146.1992" x="263.478" y="450.6919">Transaction confirmed</text></g><g class="message" data-participant-1="FE" data-participant-2="DB"><polygon fill="#181818" points="655.1855,480.8906,665.1855,484.8906,655.1855,488.8906,659.1855,484.8906" style="stroke:#181818;stroke-width:1;"/><line style="stroke:#181818;stroke-width:1;" x1="246.478" x2="661.1855" y1="484.8906" y2="484.8906"/><text fill="#000000" font-family="sans-serif" font-size="13" lengthAdjust="spacing" textLength="120.2056" x="253.478" y="479.8247">Log bet (off-chain)</text></g><g class="message" data-participant-1="FE" data-participant-2="User"><polygon fill="#181818" points="34.9551,510.0234,24.9551,514.0234,34.9551,518.0234,30.9551,514.0234" style="stroke:#181818;stroke-width:1;"/><line style="stroke:#181818;stroke-width:1;stroke-dasharray:2,2;" x1="28.9551" x2="245.478" y1="514.0234" y2="514.0234"/><text fill="#000000" font-family="sans-serif" font-size="13" lengthAdjust="spacing" textLength="90.7017" x="40.9551" y="508.9575">Show position</text></g><!--SRC=[RP2xRiCm34LtVmMHAG6Q7_3GmKuo1UZ3pLmmD9C8a4LNef3VBstdMNGKpuNk8P5K8kmInwB7g8vSZq5XjeaIb4Cx0qomMJ_3fhCNr9Q8I3f6clfFH3m6dD3RjcXHSO-9OVOkIO-Hcu_j25TLKGpji7orcX8QzamAafMaunTWiuY0dUIWnMPzZLNP-HQiFYGpS18kRFYgX4_-oPmKpkWzAoHt3AWvydEJJV_vmMoDvNtdz8dQVCHr2Rr7ukyzw_ocEGakYgQ-Xchqb3qgGpfXvFI0Tdqxp7iH_pYk8mzZEv0R6W69ngs7n5sCY5EQR2wBVDqjWIGSNEoulMopgahOoX5C5kPoE2pfX2uiHdexLtEIizbCjRy0]--></g></svg>