<?xml version="1.0" encoding="UTF-8"?>
<svg xmlns="http://www.w3.org/2000/svg" xmlns:xlink="http://www.w3.org/1999/xlink" viewBox="0 0 559.24 558.43">
  <defs>
    <style>
      .cls-1 {
        fill: url(#linear-gradient-2);
      }

      .cls-2 {
        fill: #fff;
      }

      .cls-3 {
        fill: url(#linear-gradient-3);
      }

      .cls-4 {
        fill: url(#linear-gradient);
      }
    </style>
    <linearGradient id="linear-gradient" x1="-70.86" y1="410.45" x2="425.89" y2="-86.3" gradientUnits="userSpaceOnUse">
      <stop offset="0" stop-color="#00cfff"/>
      <stop offset=".12" stop-color="#0abdff"/>
      <stop offset=".37" stop-color="#258eff"/>
      <stop offset=".71" stop-color="#5144ff"/>
      <stop offset="1" stop-color="#7a00ff"/>
    </linearGradient>
    <linearGradient id="linear-gradient-2" x1="60.98" y1="539.46" x2="539.93" y2="-31.32" gradientUnits="userSpaceOnUse">
      <stop offset="0" stop-color="#00cfff"/>
      <stop offset="0" stop-color="#00cfff"/>
      <stop offset="1" stop-color="#7a00ff"/>
    </linearGradient>
    <linearGradient id="linear-gradient-3" x1="158.78" y1="640.09" x2="655.53" y2="143.34" gradientUnits="userSpaceOnUse">
      <stop offset="0" stop-color="#00cfff"/>
      <stop offset=".12" stop-color="#0abdff"/>
      <stop offset=".37" stop-color="#258eff"/>
      <stop offset=".71" stop-color="#5144ff"/>
      <stop offset="1" stop-color="#7a00ff"/>
    </linearGradient>
  </defs>
  <g id="Layer_1" data-name="Layer 1">
    <path id="upper_curve" data-name="upper curve" class="cls-2" d="M73.3,123.38C6.67,211.42,9.35,324.27,49.21,396.04c26.16-25.87,52.55-51.96,79-78.12-16.61-65.28,11.82-134.11,66.25-169.77,50.17-32.86,114.79-29.67,152.5-9.58l75.55-75.2C303.58-13.7,152.38,18.89,73.3,123.38Z"/>
    <path id="middle_line" data-name="middle line" class="cls-2" d="M543.92,14.98c-20.14-19.97-52.27-19.99-72.48.05-14.79,14.66-29.49,29.42-44.24,44.13-1.51,1.5-3.13,2.9-4.61,4.27-.02-.01-.04-.03-.06-.04l-75.55,75.2c.08.04.16.08.24.12-2.13,2.25-4.11,4.45-6.2,6.54-75.17,74.96-150.37,149.91-225.54,224.87-33.3,33.21-66.62,66.4-99.82,99.72-14.08,14.13-18.75,31.31-13.63,50.41,10.83,40.36,59.97,49.85,86.41,23.09,21.69-21.95,43.32-43.96,65.04-65.88,3.99-4.02,8.4-7.62,12.43-11.6,9.98-9.86,19.87-19.82,29.78-29.74,24.93-24.96,49.85-49.92,74.77-74.88,20.94-20.98,41.87-41.98,62.81-62.95,25.64-25.67,51.28-51.34,76.95-76.99,44.79-44.77,89.74-89.38,134.33-134.34,20.01-20.18,19.4-52.12-.61-71.97Z"/>
    <path id="lower_curve" data-name="lower curve" class="cls-2" d="M161.84,510.42c26.41-26.41,52.49-52.48,79.12-79.12,51.58,12.11,98.92,1.28,141.04-32.79,30.27,17.48,60.55,34.97,91.49,52.84-29.77,33.19-65.07,57.74-106.92,72.24-70.05,24.27-138.38,19.24-204.74-13.16Z"/>
  </g>
  <g id="Layer_2" data-name="Layer 2">
    <path id="upper_curve-2" data-name="upper curve" class="cls-4" d="M73.3,123.38C6.67,211.42,9.35,324.27,49.21,396.04c26.16-25.87,52.55-51.96,79-78.12-16.61-65.28,11.82-134.11,66.25-169.77,50.17-32.86,114.79-29.67,152.5-9.58l75.55-75.2C303.58-13.7,152.38,18.89,73.3,123.38Z"/>
    <path id="middle_line-2" data-name="middle line" class="cls-1" d="M543.92,14.98c-20.14-19.97-52.27-19.99-72.48.05-14.79,14.66-29.49,29.42-44.24,44.13-1.51,1.5-3.13,2.9-4.61,4.27-.02-.01-.04-.03-.06-.04l-75.55,75.2c.08.04.16.08.24.12-2.13,2.25-4.11,4.45-6.2,6.54-75.17,74.96-150.37,149.91-225.54,224.87-33.3,33.21-66.62,66.4-99.82,99.72-14.08,14.13-18.75,31.31-13.63,50.41,10.83,40.36,59.97,49.85,86.41,23.09,21.69-21.95,43.32-43.96,65.04-65.88,3.99-4.02,8.4-7.62,12.43-11.6,9.98-9.86,19.87-19.82,29.78-29.74,24.93-24.96,49.85-49.92,74.77-74.88,20.94-20.98,41.87-41.98,62.81-62.95,25.64-25.67,51.28-51.34,76.95-76.99,44.79-44.77,89.74-89.38,134.33-134.34,20.01-20.18,19.4-52.12-.61-71.97Z"/>
    <path id="lower_curve-2" data-name="lower curve" class="cls-3" d="M161.84,510.42c26.41-26.41,52.49-52.48,79.12-79.12,51.58,12.11,98.92,1.28,141.04-32.79,30.27,17.48,60.55,34.97,91.49,52.84-29.77,33.19-65.07,57.74-106.92,72.24-70.05,24.27-138.38,19.24-204.74-13.16Z"/>
  </g>
</svg>